<svg xmlns="http://www.w3.org/2000/svg" viewBox="0 0 1920 1080"><g transform="
          rotate(0 960 540) 
          translate(-0 -0)
          scale(1)
        "><rect width="1920" height="1080" fill="rgb(191, 219, 255)"></rect><g transform="translate(0, 0)"><path fill="rgb(207, 228, 255)" fill-opacity="1" d="M0,132.354L64,131.278C128,130.203,256,128.051,384,127.718C512,127.385,640,128.869,768,129.036C896,129.202,1024,128.052,1152,113.694C1280,99.335,1408,71.769,1536,69.441C1664,67.112,1792,90.023,1856,101.478L1920,112.933L1920,1080L1856,1080C1792,1080,1664,1080,1536,1080C1408,1080,1280,1080,1152,1080C1024,1080,896,1080,768,1080C640,1080,512,1080,384,1080C256,1080,128,1080,64,1080L0,1080Z"></path></g><g transform="translate(0, 135)"><path fill="rgb(222, 236, 255)" fill-opacity="1" d="M0,2.072L64,18.453C128,34.834,256,67.597,384,75.757C512,83.918,640,67.476,768,52.258C896,37.04,1024,23.046,1152,30.27C1280,37.493,1408,65.936,1536,71.064C1664,76.193,1792,58.008,1856,48.915L1920,39.822L1920,945L1856,945C1792,945,1664,945,1536,945C1408,945,1280,945,1152,945C1024,945,896,945,768,945C640,945,512,945,384,945C256,945,128,945,64,945L0,945Z"></path></g><g transform="translate(0, 270)"><path fill="rgb(235, 243, 255)" fill-opacity="1" d="M0,39.765L64,52.968C128,66.172,256,92.579,384,106.761C512,120.944,640,122.902,768,106.753C896,90.604,1024,56.349,1152,42.234C1280,28.119,1408,34.144,1536,47.352C1664,60.56,1792,80.95,1856,91.144L1920,101.339L1920,810L1856,810C1792,810,1664,810,1536,810C1408,810,1280,810,1152,810C1024,810,896,810,768,810C640,810,512,810,384,810C256,810,128,810,64,810L0,810Z"></path></g><g transform="translate(0, 405)"><path fill="rgb(244, 249, 255)" fill-opacity="1" d="M0,126.715L64,116.922C128,107.13,256,87.544,384,67.617C512,47.69,640,27.421,768,16.262C896,5.102,1024,3.053,1152,15.405C1280,27.756,1408,54.509,1536,62.918C1664,71.327,1792,61.393,1856,56.425L1920,51.458L1920,675L1856,675C1792,675,1664,675,1536,675C1408,675,1280,675,1152,675C1024,675,896,675,768,675C640,675,512,675,384,675C256,675,128,675,64,675L0,675Z"></path></g><g transform="translate(0, 540)"><path fill="rgb(251, 252, 255)" fill-opacity="1" d="M0,19.306L64,21.737C128,24.168,256,29.03,384,32.478C512,35.927,640,37.962,768,49.896C896,61.83,1024,83.663,1152,98.531C1280,113.4,1408,121.303,1536,126.044C1664,130.785,1792,132.363,1856,133.152L1920,133.941L1920,540L1856,540C1792,540,1664,540,1536,540C1408,540,1280,540,1152,540C1024,540,896,540,768,540C640,540,512,540,384,540C256,540,128,540,64,540L0,540Z"></path></g><g transform="translate(0, 675)"><path fill="rgb(254, 254, 255)" fill-opacity="1" d="M0,74.431L64,68.567C128,62.703,256,50.975,384,40.739C512,30.503,640,21.758,768,34.677C896,47.597,1024,82.179,1152,102.063C1280,121.946,1408,127.13,1536,129.906C1664,132.681,1792,133.049,1856,133.233L1920,133.417L1920,405L1856,405C1792,405,1664,405,1536,405C1408,405,1280,405,1152,405C1024,405,896,405,768,405C640,405,512,405,384,405C256,405,128,405,64,405L0,405Z"></path></g><g transform="translate(0, 810)"><path fill="rgb(255, 255, 255)" fill-opacity="1" d="M0,86.152L64,84.191C128,82.231,256,78.309,384,70.297C512,62.285,640,50.181,768,59.741C896,69.301,1024,100.524,1152,113.545C1280,126.566,1408,121.384,1536,119.911C1664,118.438,1792,120.674,1856,121.791L1920,122.909L1920,270L1856,270C1792,270,1664,270,1536,270C1408,270,1280,270,1152,270C1024,270,896,270,768,270C640,270,512,270,384,270C256,270,128,270,64,270L0,270Z"></path></g><g transform="translate(0, 945)"><path fill="rgb(255, 255, 255)" fill-opacity="1" d="M0,100.641L64,85.835C128,71.028,256,41.416,384,44.962C512,48.508,640,85.213,768,93.552C896,101.891,1024,81.865,1152,64.836C1280,47.807,1408,33.776,1536,33.487C1664,33.197,1792,46.65,1856,53.377L1920,60.104L1920,135L1856,135C1792,135,1664,135,1536,135C1408,135,1280,135,1152,135C1024,135,896,135,768,135C640,135,512,135,384,135C256,135,128,135,64,135L0,135Z"></path></g></g></svg>
